<?xml version="1.0" encoding="utf-8"?>
<!-- Generator: Adobe Illustrator 16.0.0, SVG Export Plug-In . SVG Version: 6.00 Build 0)  -->
<!DOCTYPE svg PUBLIC "-//W3C//DTD SVG 1.1//EN" "http://www.w3.org/Graphics/SVG/1.1/DTD/svg11.dtd">
<svg version="1.1" id="Layer_1" xmlns="http://www.w3.org/2000/svg" xmlns:xlink="http://www.w3.org/1999/xlink" x="0px" y="0px"
	 width="200px" height="200px" viewBox="0 0 200 200" enable-background="new 0 0 200 200" xml:space="preserve">
<path d="M100,163.566c-9.268,0-18.263-1.817-26.735-5.4c-8.18-3.46-15.523-8.41-21.827-14.715
	c-6.305-6.304-11.255-13.647-14.715-21.827c-3.583-8.473-5.4-17.468-5.4-26.735c0-5.344,4.331-9.675,9.675-9.675
	s9.675,4.331,9.675,9.675c0,13.176,5.132,25.563,14.448,34.88s21.704,14.447,34.88,14.447s25.563-5.131,34.88-14.447
	s14.447-21.704,14.447-34.88c0-5.344,4.332-9.675,9.676-9.675c5.343,0,9.675,4.331,9.675,9.675c0,9.268-1.817,18.263-5.4,26.735
	c-3.46,8.18-8.411,15.523-14.715,21.827c-6.304,6.305-13.647,11.255-21.827,14.715C118.262,161.749,109.268,163.566,100,163.566z
	 M41.016,36.434c-5.343,0-9.675,4.331-9.675,9.675s4.332,9.676,9.675,9.676c5.344,0,9.676-4.332,9.676-9.676
	S46.359,36.434,41.016,36.434z M158.952,36.434c-5.344,0-9.676,4.331-9.676,9.675s4.332,9.676,9.676,9.676
	c5.343,0,9.675-4.332,9.675-9.676S164.295,36.434,158.952,36.434z"/>
</svg>
